<?xml version="1.0" standalone="no"?>
<!DOCTYPE svg PUBLIC "-//W3C//DTD SVG 20010904//EN"
 "http://www.w3.org/TR/2001/REC-SVG-20010904/DTD/svg10.dtd">
<svg version="1.0" xmlns="http://www.w3.org/2000/svg"
 width="114.000000pt" height="250.000000pt" viewBox="0 0 114.000000 250.000000"
 preserveAspectRatio="xMidYMid meet">
<metadata>
Created by potrace 1.16, written by Peter Selinger 2001-2019
</metadata>
<g transform="translate(0.000000,250.000000) scale(0.100000,-0.100000)"
fill="#000000" stroke="none">
<path d="M450 2445 l0 -55 -70 0 -70 0 0 -70 0 -70 -75 0 -75 0 0 -210 0 -210
-65 0 -65 0 0 -695 0 -695 65 0 65 0 0 415 0 415 280 0 280 0 0 -262 c0 -145
-3 -334 -7 -420 l-6 -158 -69 0 -68 0 0 -70 0 -70 70 0 70 0 0 -70 0 -71 -247
1 c-136 1 -260 4 -275 7 -27 5 -28 7 -28 69 l0 64 135 0 135 0 0 48 c0 26 3
57 6 70 l6 22 -141 0 -141 0 0 -70 0 -70 -70 0 -70 0 0 -145 0 -145 560 0 560
0 0 140 0 140 -70 0 -70 0 0 75 0 75 70 0 70 0 0 700 0 700 -65 0 -65 0 0 210
0 210 -70 0 -70 0 0 70 0 70 -70 0 -70 0 0 55 0 55 -140 0 -140 0 0 -55z m140
-207 c0 -84 -3 -306 -7 -492 l-6 -339 -206 7 c-113 4 -206 8 -206 9 0 1 1 93
3 205 l4 202 63 0 c62 0 63 0 69 31 3 17 6 112 6 210 l0 179 70 0 70 0 0 70 0
70 70 0 70 0 0 -152z m243 3 c27 -1 27 -2 27 -66 l0 -65 -65 0 -65 0 0 69 0
70 38 -4 c20 -1 49 -3 65 -4z m167 -556 l0 -135 -68 0 -68 0 2 33 c1 17 2 78
3 135 l1 102 65 0 65 0 0 -135z m-4 -428 c3 -3 2 -190 -2 -416 l-7 -411 -63 0
c-57 0 -63 2 -66 23 -2 12 -2 201 0 421 l2 399 66 -6 c36 -2 67 -7 70 -10z"/>
</g>
</svg>
